<mxfile host="app.diagrams.net" modified="2023-06-07T12:17:07.295Z" agent="Mozilla/5.0 (X11; Linux x86_64) AppleWebKit/537.36 (KHTML, like Gecko) Chrome/112.0.0.0 Safari/537.36" etag="mh23cI7ONERNabq1cF5x" version="21.3.7" type="github">
  <diagram name="Page-1" id="qGErFpHGVCpCqOzokBdA">
    <mxGraphModel dx="1199" dy="1046" grid="1" gridSize="10" guides="1" tooltips="1" connect="1" arrows="1" fold="1" page="1" pageScale="1" pageWidth="827" pageHeight="1169" math="0" shadow="0">
      <root>
        <mxCell id="0" />
        <mxCell id="1" parent="0" />
        <mxCell id="bSr87n0pjaTkjrduYh9R-1" value="" style="whiteSpace=wrap;html=1;aspect=fixed;" vertex="1" parent="1">
          <mxGeometry x="200" y="240" width="240" height="240" as="geometry" />
        </mxCell>
        <mxCell id="bSr87n0pjaTkjrduYh9R-3" value="" style="rounded=0;whiteSpace=wrap;html=1;" vertex="1" parent="1">
          <mxGeometry x="480" y="240" width="120" height="240" as="geometry" />
        </mxCell>
        <mxCell id="bSr87n0pjaTkjrduYh9R-5" value="" style="rounded=0;whiteSpace=wrap;html=1;fillColor=#60a917;fontColor=#ffffff;strokeColor=#2D7600;" vertex="1" parent="1">
          <mxGeometry x="200" y="520" width="240" height="40" as="geometry" />
        </mxCell>
        <mxCell id="bSr87n0pjaTkjrduYh9R-6" value="" style="rounded=0;whiteSpace=wrap;html=1;fillColor=#60a917;fontColor=#ffffff;strokeColor=#2D7600;" vertex="1" parent="1">
          <mxGeometry x="200" y="580" width="240" height="40" as="geometry" />
        </mxCell>
        <mxCell id="bSr87n0pjaTkjrduYh9R-8" value="" style="whiteSpace=wrap;html=1;aspect=fixed;fillColor=#f0a30a;strokeColor=#BD7000;fontColor=#000000;" vertex="1" parent="1">
          <mxGeometry x="200" y="240" width="80" height="80" as="geometry" />
        </mxCell>
        <mxCell id="bSr87n0pjaTkjrduYh9R-9" value="" style="whiteSpace=wrap;html=1;aspect=fixed;fillColor=#f0a30a;strokeColor=#BD7000;fontColor=#000000;" vertex="1" parent="1">
          <mxGeometry x="280" y="320" width="80" height="80" as="geometry" />
        </mxCell>
        <mxCell id="bSr87n0pjaTkjrduYh9R-10" value="" style="whiteSpace=wrap;html=1;aspect=fixed;fillColor=#f0a30a;strokeColor=#BD7000;fontColor=#000000;" vertex="1" parent="1">
          <mxGeometry x="360" y="400" width="80" height="80" as="geometry" />
        </mxCell>
        <mxCell id="bSr87n0pjaTkjrduYh9R-12" value="" style="rounded=0;whiteSpace=wrap;html=1;fillColor=#e51400;fontColor=#ffffff;strokeColor=#B20000;" vertex="1" parent="1">
          <mxGeometry x="480" y="240" width="40" height="80" as="geometry" />
        </mxCell>
        <mxCell id="bSr87n0pjaTkjrduYh9R-13" value="" style="whiteSpace=wrap;html=1;aspect=fixed;fillColor=#ffe6cc;strokeColor=#d79b00;" vertex="1" parent="1">
          <mxGeometry x="280" y="240" width="80" height="80" as="geometry" />
        </mxCell>
        <mxCell id="bSr87n0pjaTkjrduYh9R-14" value="" style="whiteSpace=wrap;html=1;aspect=fixed;fillColor=#ffe6cc;strokeColor=#d79b00;" vertex="1" parent="1">
          <mxGeometry x="360" y="240" width="80" height="80" as="geometry" />
        </mxCell>
        <mxCell id="bSr87n0pjaTkjrduYh9R-15" value="" style="whiteSpace=wrap;html=1;aspect=fixed;fillColor=#ffe6cc;strokeColor=#d79b00;" vertex="1" parent="1">
          <mxGeometry x="360" y="320" width="80" height="80" as="geometry" />
        </mxCell>
        <mxCell id="bSr87n0pjaTkjrduYh9R-16" value="" style="whiteSpace=wrap;html=1;aspect=fixed;fillColor=#ffe6cc;strokeColor=#d79b00;" vertex="1" parent="1">
          <mxGeometry x="200" y="320" width="80" height="80" as="geometry" />
        </mxCell>
        <mxCell id="bSr87n0pjaTkjrduYh9R-17" value="" style="whiteSpace=wrap;html=1;aspect=fixed;fillColor=#ffe6cc;strokeColor=#d79b00;" vertex="1" parent="1">
          <mxGeometry x="200" y="400" width="80" height="80" as="geometry" />
        </mxCell>
        <mxCell id="bSr87n0pjaTkjrduYh9R-18" value="" style="whiteSpace=wrap;html=1;aspect=fixed;fillColor=#ffe6cc;strokeColor=#d79b00;" vertex="1" parent="1">
          <mxGeometry x="280" y="400" width="80" height="80" as="geometry" />
        </mxCell>
        <mxCell id="bSr87n0pjaTkjrduYh9R-19" value="" style="rounded=0;whiteSpace=wrap;html=1;fillColor=#e51400;fontColor=#ffffff;strokeColor=#B20000;" vertex="1" parent="1">
          <mxGeometry x="520" y="320" width="40" height="80" as="geometry" />
        </mxCell>
        <mxCell id="bSr87n0pjaTkjrduYh9R-20" value="" style="rounded=0;whiteSpace=wrap;html=1;fillColor=#e51400;fontColor=#ffffff;strokeColor=#B20000;" vertex="1" parent="1">
          <mxGeometry x="560" y="400" width="40" height="80" as="geometry" />
        </mxCell>
        <mxCell id="bSr87n0pjaTkjrduYh9R-21" value="" style="rounded=0;whiteSpace=wrap;html=1;fillColor=#f8cecc;strokeColor=#b85450;" vertex="1" parent="1">
          <mxGeometry x="560" y="320" width="40" height="80" as="geometry" />
        </mxCell>
        <mxCell id="bSr87n0pjaTkjrduYh9R-22" value="" style="rounded=0;whiteSpace=wrap;html=1;fillColor=#f8cecc;strokeColor=#b85450;" vertex="1" parent="1">
          <mxGeometry x="560" y="240" width="40" height="80" as="geometry" />
        </mxCell>
        <mxCell id="bSr87n0pjaTkjrduYh9R-23" value="" style="rounded=0;whiteSpace=wrap;html=1;fillColor=#f8cecc;strokeColor=#b85450;" vertex="1" parent="1">
          <mxGeometry x="520" y="240" width="40" height="80" as="geometry" />
        </mxCell>
        <mxCell id="bSr87n0pjaTkjrduYh9R-24" value="" style="rounded=0;whiteSpace=wrap;html=1;fillColor=#f8cecc;strokeColor=#b85450;" vertex="1" parent="1">
          <mxGeometry x="480" y="320" width="40" height="80" as="geometry" />
        </mxCell>
        <mxCell id="bSr87n0pjaTkjrduYh9R-25" value="" style="rounded=0;whiteSpace=wrap;html=1;fillColor=#f8cecc;strokeColor=#b85450;" vertex="1" parent="1">
          <mxGeometry x="480" y="400" width="40" height="80" as="geometry" />
        </mxCell>
        <mxCell id="bSr87n0pjaTkjrduYh9R-26" value="" style="rounded=0;whiteSpace=wrap;html=1;fillColor=#f8cecc;strokeColor=#b85450;" vertex="1" parent="1">
          <mxGeometry x="520" y="400" width="40" height="80" as="geometry" />
        </mxCell>
        <mxCell id="bSr87n0pjaTkjrduYh9R-27" value="" style="whiteSpace=wrap;html=1;aspect=fixed;fillColor=#f0a30a;strokeColor=#BD7000;fontColor=#000000;" vertex="1" parent="1">
          <mxGeometry x="200" y="680" width="40" height="40" as="geometry" />
        </mxCell>
        <mxCell id="bSr87n0pjaTkjrduYh9R-28" value="" style="whiteSpace=wrap;html=1;aspect=fixed;fillColor=#ffe6cc;strokeColor=#d79b00;" vertex="1" parent="1">
          <mxGeometry x="200" y="720" width="40" height="40" as="geometry" />
        </mxCell>
        <mxCell id="bSr87n0pjaTkjrduYh9R-29" value="" style="rounded=0;whiteSpace=wrap;html=1;fillColor=#e51400;fontColor=#ffffff;strokeColor=#B20000;" vertex="1" parent="1">
          <mxGeometry x="200" y="800" width="40" height="40" as="geometry" />
        </mxCell>
        <mxCell id="bSr87n0pjaTkjrduYh9R-30" value="" style="rounded=0;whiteSpace=wrap;html=1;fillColor=#f8cecc;strokeColor=#b85450;" vertex="1" parent="1">
          <mxGeometry x="200" y="840" width="40" height="40" as="geometry" />
        </mxCell>
        <mxCell id="bSr87n0pjaTkjrduYh9R-31" value="" style="rounded=0;whiteSpace=wrap;html=1;fillColor=#60a917;fontColor=#ffffff;strokeColor=#2D7600;" vertex="1" parent="1">
          <mxGeometry x="200" y="920" width="40" height="40" as="geometry" />
        </mxCell>
        <mxCell id="bSr87n0pjaTkjrduYh9R-32" value="Interindustry Domestic" style="text;html=1;strokeColor=none;fillColor=none;align=center;verticalAlign=middle;whiteSpace=wrap;rounded=0;fontSize=20;" vertex="1" parent="1">
          <mxGeometry x="240" y="680" width="260" height="40" as="geometry" />
        </mxCell>
        <mxCell id="bSr87n0pjaTkjrduYh9R-34" value="Interindustry Trade" style="text;html=1;strokeColor=none;fillColor=none;align=center;verticalAlign=middle;whiteSpace=wrap;rounded=0;fontSize=20;" vertex="1" parent="1">
          <mxGeometry x="240" y="720" width="260" height="40" as="geometry" />
        </mxCell>
        <mxCell id="bSr87n0pjaTkjrduYh9R-35" value="Final Demand Domestic" style="text;html=1;strokeColor=none;fillColor=none;align=center;verticalAlign=middle;whiteSpace=wrap;rounded=0;fontSize=20;" vertex="1" parent="1">
          <mxGeometry x="240" y="800" width="260" height="40" as="geometry" />
        </mxCell>
        <mxCell id="bSr87n0pjaTkjrduYh9R-36" value="Final Demand via Trade" style="text;html=1;strokeColor=none;fillColor=none;align=center;verticalAlign=middle;whiteSpace=wrap;rounded=0;fontSize=20;" vertex="1" parent="1">
          <mxGeometry x="240" y="840" width="260" height="40" as="geometry" />
        </mxCell>
        <mxCell id="bSr87n0pjaTkjrduYh9R-37" value="Extensions / Satellite Accounts" style="text;html=1;strokeColor=none;fillColor=none;align=center;verticalAlign=middle;whiteSpace=wrap;rounded=0;fontSize=20;" vertex="1" parent="1">
          <mxGeometry x="240" y="920" width="290" height="40" as="geometry" />
        </mxCell>
        <mxCell id="bSr87n0pjaTkjrduYh9R-38" value="" style="rounded=0;whiteSpace=wrap;html=1;fillColor=#60a917;fontColor=#ffffff;strokeColor=#2D7600;" vertex="1" parent="1">
          <mxGeometry x="480" y="520" width="120" height="40" as="geometry" />
        </mxCell>
        <mxCell id="bSr87n0pjaTkjrduYh9R-39" value="&lt;font style=&quot;font-size: 32px;&quot;&gt;&lt;b&gt;Y&lt;/b&gt;&lt;/font&gt;" style="text;html=1;strokeColor=none;fillColor=none;align=center;verticalAlign=middle;whiteSpace=wrap;rounded=0;" vertex="1" parent="1">
          <mxGeometry x="420" y="190" width="100" height="50" as="geometry" />
        </mxCell>
        <mxCell id="bSr87n0pjaTkjrduYh9R-40" value="&lt;font style=&quot;font-size: 32px;&quot;&gt;&lt;b&gt;A/Z&lt;/b&gt;&lt;/font&gt;" style="text;html=1;strokeColor=none;fillColor=none;align=center;verticalAlign=middle;whiteSpace=wrap;rounded=0;" vertex="1" parent="1">
          <mxGeometry x="130" y="190" width="100" height="50" as="geometry" />
        </mxCell>
        <mxCell id="bSr87n0pjaTkjrduYh9R-41" value="&lt;font style=&quot;font-size: 32px;&quot;&gt;&lt;b&gt;F/S&lt;/b&gt;&lt;/font&gt;" style="text;html=1;strokeColor=none;fillColor=none;align=center;verticalAlign=middle;whiteSpace=wrap;rounded=0;" vertex="1" parent="1">
          <mxGeometry x="130" y="480" width="100" height="50" as="geometry" />
        </mxCell>
      </root>
    </mxGraphModel>
  </diagram>
</mxfile>
